<svg fill="none" height="129" viewBox="0 0 100 129" width="100" xmlns="http://www.w3.org/2000/svg" xmlns:xlink="http://www.w3.org/1999/xlink"><linearGradient id="a" gradientUnits="userSpaceOnUse" x1="19.4766" x2="117.957" y1="127.528" y2="26.3027"><stop offset="0" stop-color="#fff"/><stop offset=".904376" stop-color="#e4e4e4"/><stop offset="1" stop-color="#777"/></linearGradient><mask id="b" height="15" maskUnits="userSpaceOnUse" width="15" x="14" y="87"><path d="m28.082 94.8348-7.0078 6.8922-7.009-6.8922 7.0112-6.8932 4.382 4.309-4.382 4.3067-1.755-1.7225 2.628-2.5842-.8764-.8618-3.5033 3.446 3.5045 3.4438 5.2561-5.1685z" fill="#fff"/></mask><mask id="c" height="27" maskUnits="userSpaceOnUse" width="26" x="14" y="87"><path d="m14.0652 113.307h25.3651v-25.3654h-25.3651z" fill="#fff"/></mask><mask id="d" height="17" maskUnits="userSpaceOnUse" width="17" x="12" y="86"><path d="m28.4618 86.5157h-15.7303v15.7303h15.7303z" fill="#fff"/></mask><mask id="e" height="18" maskUnits="userSpaceOnUse" width="18" x="12" y="86"><path d="m12.6315 103.44h16.8539v-16.8535h-16.8539z" fill="#fff"/></mask><path d="m76.1978 0h-76.1978v127.528h99.4719v-104.2538z" fill="url(#a)"/><path d="m76.1978 23.2742h23.2741l-23.2741-23.2742z" fill="#acb3ba"/><path d="m66.9528 22.318h-34.5921v4.782h34.5921z" fill="#00e676"/><g fill="#2b3b4e"><path d="m91.5022 37.9393h-83.53142v3.0292h83.53142z"/><path d="m91.5022 50.0551h-83.53142v3.0292h83.53142z"/><path d="m91.5022 62.1697h-83.53142v3.0292h83.53142z"/><path d="m53.5618 74.2854h-45.59102v3.0292h45.59102z"/><path d="m91.5011 91.0236h-39.3741v3.0292h39.3741z"/></g><path d="m91.5011 100.11h-30.6067v3.029h30.6067z" fill="#00e676"/><path d="m91.5011 109.195h-20.0854v3.03h20.0854z" fill="#00e676"/><path d="m27.2596 121.311-6.2169-5.101-6.3764 5.101v-15.463h12.5933z" fill="#00e676"/><path d="m21.0427 107.921c7.2194 0 13.0719-5.852 13.0719-13.0716 0-7.2194-5.8525-13.0719-13.0719-13.0719s-13.07192 5.8525-13.07192 13.0719c0 7.2196 5.85252 13.0716 13.07192 13.0716z" fill="#00e676"/><path d="m21.0416 104.892c5.5464 0 10.0427-4.496 10.0427-10.0426 0-5.5464-4.4963-10.0427-10.0427-10.0427-5.5465 0-10.0427 4.4963-10.0427 10.0427 0 5.5466 4.4962 10.0426 10.0427 10.0426z" fill="#fff"/><g mask="url(#b)"><g mask="url(#c)"><g mask="url(#d)"><g mask="url(#e)"><path d="m13.1461 87.0224h15.855v15.6176h-15.855z" fill="#00e676"/></g></g></g></g></svg>