<svg fill="none" height="130" viewBox="0 0 140 130" width="140" xmlns="http://www.w3.org/2000/svg" xmlns:xlink="http://www.w3.org/1999/xlink"><filter id="a" color-interpolation-filters="sRGB" filterUnits="userSpaceOnUse" height="37" width="144" x="-1" y="98"><feFlood flood-opacity="0" result="BackgroundImageFix"/><feBlend in="SourceGraphic" in2="BackgroundImageFix" mode="normal" result="shape"/><feGaussianBlur result="effect1_foregroundBlur" stdDeviation="5"/></filter><linearGradient id="b" gradientUnits="userSpaceOnUse" x1="131.5" x2="41.2052" y1="9" y2="103.885"><stop offset="0" stop-color="#fff"/><stop offset="1" stop-color="#333" stop-opacity="0"/></linearGradient><linearGradient id="c"><stop offset="0" stop-color="#fff"/><stop offset="1" stop-color="#808080" stop-opacity="0"/></linearGradient><linearGradient id="d" gradientUnits="userSpaceOnUse" x1="111.63" x2="65.6481" xlink:href="#c" y1="21.99" y2="71.8202"/><linearGradient id="e" gradientUnits="userSpaceOnUse" x1="84.3931" x2="38.4112" xlink:href="#c" y1="21.99" y2="71.8202"/><linearGradient id="f" gradientUnits="userSpaceOnUse" x1="57.0131" x2="11.0312" xlink:href="#c" y1="21.99" y2="71.8202"/><linearGradient id="g" gradientUnits="userSpaceOnUse" x1="29.632" x2="-16.3498" xlink:href="#c" y1="21.99" y2="71.8201"/><radialGradient id="h" cx="0" cy="0" gradientTransform="matrix(0 -26 189.647 0 71 127)" gradientUnits="userSpaceOnUse" r="1"><stop offset="0" stop-color="#00e676"/><stop offset="1" stop-color="#00e676" stop-opacity="0"/></radialGradient><clipPath id="i"><path d="m0 0h140v130h-140z"/></clipPath><mask id="j" height="16" maskUnits="userSpaceOnUse" width="16" x="62" y="16"><path d="m77.9117 24.0244-7.92 7.7895-7.92-7.7895 7.9231-7.7894 4.9474 4.8705-4.9474 4.8673-1.9831-1.9484 2.9705-2.92-.9895-.9737-3.961 3.8937 3.96 3.8948 5.94-5.8411z" fill="#fff"/></mask><mask id="k" height="29" maskUnits="userSpaceOnUse" width="29" x="62" y="16"><path d="m62.0717 44.8992h28.6642v-28.6642h-28.6642z" fill="#fff"/></mask><mask id="l" height="18" maskUnits="userSpaceOnUse" width="20" x="60" y="15"><path d="m79.5959 15.0802h-18.9474v17.8948h18.9474z" fill="#fff"/></mask><mask id="m" height="19" maskUnits="userSpaceOnUse" width="19" x="60" y="14"><path d="m60.638 32.6971h17.8947v-17.8948h-17.8947z" fill="#fff"/></mask><g clip-path="url(#i)"><path d="m127.297 39.0276-56.3369-38.705272c-.5467-.429771-1.3165-.429771-1.8632 0l-56.4821 38.705272c-.639.4264-.9189 1.2241-.6863 1.9563s.9215 1.2222 1.6895 1.2016h112.676c.742-.0285 1.386-.5191 1.611-1.2266.224-.7075-.019-1.48-.608-1.9313z" fill="url(#b)"/><path d="m36.1254 34.1539 33.8315-23.08 33.8321 23.08z" fill="#e6e9ee"/><path d="m119.699 42.0381h-17.345v.5737c.002 2.295 1.862 4.1551 4.157 4.1568h9.031c2.295-.0017 4.155-1.8618 4.157-4.1568z" fill="#e6e9ee"/><path d="m102.354 108.554h17.345v-.574c-.002-2.295-1.862-4.155-4.157-4.157h-9.031c-2.295.002-4.155 1.862-4.157 4.157z" fill="#ced5e0"/><path d="m114.538 103.821c1.143-9.4643 1.671-18.9931 1.579-28.526.092-9.533-.436-19.0618-1.579-28.5264h-7.308c-1.144 9.4646-1.671 18.9934-1.579 28.5264-.092 9.5329.435 19.0617 1.579 28.526z" fill="url(#d)"/><path d="m92.319 42.0381h-17.3452v.5737c.0017 2.295 1.8618 4.1551 4.1568 4.1568h9.0316c2.295-.0017 4.1551-1.8618 4.1568-4.1568z" fill="#e6e9ee"/><path d="m74.9738 108.554h17.3452v-.574c-.0017-2.295-1.8618-4.155-4.1568-4.157h-9.0316c-2.295.002-4.1551 1.862-4.1568 4.157z" fill="#ced5e0"/><path d="m87.3012 103.821c1.1431-9.4643 1.6706-18.9931 1.5789-28.526.0917-9.533-.4358-19.0618-1.5789-28.5264h-7.3085c-1.1431 9.4646-1.6706 18.9934-1.5789 28.5264-.0917 9.5329.4358 19.0617 1.5789 28.526z" fill="url(#e)"/><path d="m64.938 42.0381h-17.3453v.5737c.0018 2.295 1.8618 4.1551 4.1569 4.1568h9.0316c2.295-.0017 4.1551-1.8618 4.1568-4.1568z" fill="#e6e9ee"/><path d="m47.5927 108.554h17.3453v-.574c-.0017-2.295-1.8618-4.155-4.1568-4.157h-9.0316c-2.2951.002-4.1551 1.862-4.1569 4.157z" fill="#ced5e0"/><path d="m59.9212 103.821c1.1431-9.4643 1.6705-18.9931 1.5789-28.526.0916-9.533-.4358-19.0618-1.5789-28.5264h-7.3085c-1.1431 9.4646-1.6706 18.9934-1.5789 28.5264-.0917 9.5329.4358 19.0617 1.5789 28.526z" fill="url(#f)"/><path d="m37.558 42.0381h-17.3453v.5737c.0018 2.295 1.8618 4.1551 4.1569 4.1568h9.0316c2.295-.0017 4.1551-1.8618 4.1568-4.1568z" fill="#e6e9ee"/><path d="m20.2127 108.554h17.3453v-.574c-.0017-2.295-1.8618-4.155-4.1568-4.157h-9.0316c-2.2951.002-4.1551 1.862-4.1569 4.157z" fill="#ced5e0"/><path d="m32.5401 103.821c1.1432-9.4643 1.6706-18.9931 1.5789-28.526.0917-9.533-.4357-19.0618-1.5789-28.5264h-7.3084c-1.1432 9.4646-1.6706 18.9934-1.579 28.5264-.0916 9.5329.4358 19.0617 1.579 28.526z" fill="url(#g)"/><g filter="url(#a)"><path d="m133 124.99v-7.634c.004-2.484-.357-4.87-1.001-6.627s-1.518-2.739-2.429-2.729h-117.1396c-.9115-.01-1.7868.974-2.43104 2.733s-1.00401 4.147-.99931 6.633v7.634z" fill="url(#h)"/></g><path d="m129.16 115.578v-3.158c.004-1.028-.402-2.015-1.129-2.741-.727-.727-1.714-1.134-2.741-1.129h-110.6678c-1.0285-.005-2.0161.402-2.743 1.13s-1.1329 1.716-1.1276 2.744v3.158z" fill="#acb3ba"/><path d="m134.609 122.602v-3.158c.004-1.027-.403-2.014-1.129-2.741-.727-.727-1.714-1.133-2.742-1.129h-121.56316c-1.02854-.004-2.01612.403-2.74303 1.13-.7269.728-1.13284 1.716-1.12754 2.745v3.158z" fill="#e6e9ee"/><path d="m139.912 129.483v-3.158c.004-1.027-.403-2.014-1.129-2.741-.727-.727-1.714-1.133-2.742-1.129h-132.17037c-1.02855-.004-2.01613.403-2.74303 1.13-.726908.728-1.13284202 1.716-1.12754888 2.745v3.158z" fill="#acb3ba"/><g mask="url(#j)"><g mask="url(#k)"><g mask="url(#l)"><g mask="url(#m)"><path d="m61.0327 15.1971h17.9179v17.6558h-17.9179z" fill="#00e676"/></g></g></g></g></g></svg>