<svg fill="none" height="109" viewBox="0 0 120 109" width="120" xmlns="http://www.w3.org/2000/svg" xmlns:xlink="http://www.w3.org/1999/xlink"><filter id="a" color-interpolation-filters="sRGB" filterUnits="userSpaceOnUse" height="27.6983" width="27.6983" x="13.614" y="66.5918"><feFlood flood-opacity="0" result="BackgroundImageFix"/><feBlend in="SourceGraphic" in2="BackgroundImageFix" mode="normal" result="shape"/><feGaussianBlur result="effect1_foregroundBlur" stdDeviation="1"/></filter><filter id="b" color-interpolation-filters="sRGB" filterUnits="userSpaceOnUse" height="21.7738" width="21.7738" x="-.79892" y="72.5971"><feFlood flood-opacity="0" result="BackgroundImageFix"/><feBlend in="SourceGraphic" in2="BackgroundImageFix" mode="normal" result="shape"/><feGaussianBlur result="effect1_foregroundBlur" stdDeviation="1"/></filter><linearGradient id="c"><stop offset="0" stop-color="#fff"/><stop offset="1" stop-color="#324a5e" stop-opacity="0"/></linearGradient><linearGradient id="d" gradientUnits="userSpaceOnUse" x1="53.6259" x2="21.8718" xlink:href="#c" y1="37.6199" y2="92.1634"/><linearGradient id="e" gradientUnits="userSpaceOnUse" x1="73.2539" x2="-28.3819" xlink:href="#c" y1="16.2607" y2="81.1023"/><linearGradient id="f" gradientUnits="userSpaceOnUse" x1="115.325" x2="8.89184" xlink:href="#c" y1="-7.89826" y2="59.7141"/><clipPath id="g"><path d="m0 0h120v108.387h-120z"/></clipPath><mask id="h" height="15" maskUnits="userSpaceOnUse" width="15" x="20" y="73"><path d="m34.8613 80.4481-7.2713 7.1501-7.2718-7.1501 7.2739-7.1526 4.5426 4.4714-4.5447 4.4684-1.8178-1.7872 2.727-2.6812-.9088-.894-3.6359 3.5752 3.6359 3.5753 5.4532-5.3629z" fill="#fff"/></mask><mask id="i" height="27" maskUnits="userSpaceOnUse" width="27" x="20" y="73"><path d="m20.3182 99.6124h26.3168v-26.3169h-26.3168z" fill="#fff"/></mask><mask id="j" height="18" maskUnits="userSpaceOnUse" width="18" x="18" y="71"><path d="m35.9305 71.9715h-16.9644v16.9643h16.9644z" fill="#fff"/></mask><mask id="k" height="17" maskUnits="userSpaceOnUse" width="18" x="19" y="72"><path d="m19.1273 88.6194h17.0152v-16.5148h-17.0152z" fill="#fff"/></mask><mask id="l" height="11" maskUnits="userSpaceOnUse" width="12" x="4" y="78"><path d="m15.6366 83.4894-5.4535 5.3625-5.45385-5.3625 5.45545-5.3644 3.4069 3.3535-3.4085 3.3513-1.36332-1.3404 2.04522-2.0109-.6816-.6705-2.72692 2.6814 2.72692 2.6814 4.0899-4.0221z" fill="#fff"/></mask><mask id="m" height="20" maskUnits="userSpaceOnUse" width="21" x="4" y="78"><path d="m4.72925 97.8625h19.73755v-19.7375h-19.73755z" fill="#fff"/></mask><mask id="n" height="13" maskUnits="userSpaceOnUse" width="14" x="3" y="77"><path d="m16.4385 77.1319h-12.72329v12.7233h12.72329z" fill="#fff"/></mask><mask id="o" height="13" maskUnits="userSpaceOnUse" width="14" x="3" y="77"><path d="m3.83607 89.6179h12.76143v-12.3861h-12.76143z" fill="#fff"/></mask><g clip-path="url(#g)"><g filter="url(#a)"><path d="m27.4632 92.2901c6.5441 0 11.8491-5.305 11.8491-11.8492 0-6.5441-5.305-11.8491-11.8491-11.8491-6.5442 0-11.8492 5.305-11.8492 11.8491 0 6.5442 5.305 11.8492 11.8492 11.8492z" fill="#01e676"/></g><path d="m27.4632 92.2901c6.5441 0 11.8491-5.305 11.8491-11.8492 0-6.5441-5.305-11.8491-11.8491-11.8491-6.5442 0-11.8492 5.305-11.8492 11.8491 0 6.5442 5.305 11.8492 11.8492 11.8492z" fill="#01e676"/><path d="m27.4632 69.7827c-4.3109 0-8.1973 2.5968-9.847 6.5795s-.7378 8.567 2.3104 11.6153c3.0483 3.0482 7.6326 3.9601 11.6153 2.3104s6.5795-5.5361 6.5795-9.847c.0029-2.8276-1.1192-5.5402-3.1186-7.5396s-4.712-3.1215-7.5396-3.1186zm0 20.1256c-5.2287 0-9.4674-4.2387-9.4674-9.4674 0-5.2286 4.2387-9.4673 9.4674-9.4673 5.2286 0 9.4673 4.2387 9.4673 9.4673.0039 2.5121-.9923 4.9224-2.7687 6.6987-1.7763 1.7763-4.1866 2.7726-6.6986 2.7687z" fill="#0bba64"/><g mask="url(#h)"><g mask="url(#i)"><g mask="url(#j)"><g mask="url(#k)"><path d="m19.3648 72.3421h16.4503v16.2099h-16.4503z" fill="#fff"/></g></g></g></g><g filter="url(#b)"><path d="m10.088 92.3709c4.908 0 8.8868-3.9788 8.8868-8.8869s-3.9788-8.8869-8.8868-8.8869c-4.90813 0-8.88692 3.9788-8.88692 8.8869s3.97879 8.8869 8.88692 8.8869z" fill="#01e676"/></g><path d="m10.088 92.3709c4.908 0 8.8868-3.9788 8.8868-8.8869s-3.9788-8.8869-8.8868-8.8869c-4.90813 0-8.88692 3.9788-8.88692 8.8869s3.97879 8.8869 8.88692 8.8869z" fill="#01e676"/><path d="m10.088 75.4903c-3.23319 0-6.14798 1.9476-7.38526 4.9346-1.23727 2.9871-.55336 6.4253 1.73282 8.7115 2.28619 2.2862 5.72444 2.9701 8.71144 1.7328 2.9871-1.2373 4.9347-4.152 4.9347-7.3852.0021-2.1207-.8394-4.1552-2.339-5.6547-1.4996-1.4996-3.534-2.3411-5.6547-2.339zm0 15.0942c-3.92155 0-7.10057-3.179-7.10057-7.1005s3.17902-7.1005 7.10057-7.1005c3.9215 0 7.1005 3.179 7.1005 7.1005.0029 1.8841-.7443 3.6918-2.0765 5.024-1.3323 1.3322-3.14 2.0794-5.024 2.0765z" fill="#0bba64"/><g mask="url(#l)"><g mask="url(#m)"><g mask="url(#n)"><g mask="url(#o)"><path d="m4.01421 77.4099h12.33779v12.1574h-12.33779z" fill="#fff"/></g></g></g></g><path d="m93.2621 51.6983c6.5441 0 11.8489-5.305 11.8489-11.8491s-5.3048-11.8492-11.8489-11.8492-11.8492 5.3051-11.8492 11.8492 5.3051 11.8491 11.8492 11.8491z" fill="#ffb343"/><path d="m93.2621 29.1909c-4.3109 0-8.1973 2.5968-9.847 6.5795-1.6497 3.9828-.7378 8.5671 2.3104 11.6153 3.0483 3.0483 7.6326 3.9602 11.6153 2.3105 3.9832-1.6497 6.5792-5.5361 6.5792-9.847.003-2.8276-1.119-5.5402-3.118-7.5397-1.9997-1.9994-4.7123-3.1214-7.5399-3.1186zm0 20.1257c-5.2287 0-9.4674-4.2387-9.4674-9.4674s4.2387-9.4674 9.4674-9.4674 9.4669 4.2387 9.4669 9.4674c.004 2.5121-.992 4.9224-2.7682 6.6987-1.7764 1.7763-4.1867 2.7725-6.6987 2.7687z" fill="#f19d20"/><path d="m80.1099 51.7791c4.9081 0 8.8869-3.9787 8.8869-8.8868s-3.9788-8.8869-8.8869-8.8869-8.8868 3.9788-8.8868 8.8869 3.9787 8.8868 8.8868 8.8868z" fill="#ffb343"/><path d="m80.1099 34.8985c-3.2331 0-6.1479 1.9476-7.3852 4.9347-1.2373 2.987-.5534 6.4253 1.7328 8.7115 2.2862 2.2861 5.7245 2.97 8.7115 1.7328 2.987-1.2373 4.9347-4.1521 4.9347-7.3853.0021-2.1207-.8395-4.1551-2.339-5.6547-1.4996-1.4996-3.5341-2.3411-5.6548-2.339zm0 15.0943c-3.9215 0-7.1005-3.179-7.1005-7.1006 0-3.9215 3.179-7.1005 7.1005-7.1005 3.9216 0 7.1006 3.179 7.1006 7.1005.0029 1.8841-.7443 3.6918-2.0765 5.0241-1.3323 1.3322-3.14 2.0794-5.0241 2.0765z" fill="#f19d20"/><path d="m73.1837 107.88h-39.754c.026-3.746 3.0563-6.777 6.8024-6.803h26.255c3.7093.072 6.6826 3.093 6.6966 6.803z" fill="#acb3ba"/><path d="m57.7702 101.077h-8.9286l1.8072-63.4571c.869.2167 1.7618.3236 2.6575.3181.8953-.0008 1.7873-.1076 2.6575-.3181z" fill="url(#d)"/><path d="m58.4412 37.0549c4.9822-2.8765 6.6893-9.2473 3.8128-14.2296-2.8765-4.9822-9.2473-6.6893-14.2296-3.8128-4.9822 2.8765-6.6893 9.2473-3.8128 14.2296 2.8765 4.9822 9.2473 6.6893 14.2296 3.8128z" fill="#2b3b4e"/><path d="m43.173 31.0184c.1991.7647.4997 1.4993.8937 2.1843.3902.6878.8767 1.3162 1.4448 1.8661l-22.5179 12.0189c-.142-1.0963-.716-2.0905-1.5944-2.7616z" fill="url(#e)"/><path d="m84.8069 9.80441c.25.44889.5986.83519 1.0196 1.12979l-22.6795 14.0758c-.1991-.7647-.4997-1.4993-.8937-2.1843-.3901-.6877-.8767-1.3161-1.4448-1.8661l23.5305-12.60351c.0327.51426.1935 1.01216.4679 1.44832z" fill="url(#f)"/><path d="m68.4613 43.541c2.888 8.3947 10.7866 14.0305 19.6643 14.0305 8.8776 0 16.7764-5.6358 19.6644-14.0305z" fill="#2b3b4e"/><path d="m88.1256 12.3965c2.348 0 4.2515-1.9035 4.2515-4.25149 0-2.34803-1.9035-4.25149-4.2515-4.25149-2.3481 0-4.2515 1.90346-4.2515 4.25149 0 2.34799 1.9034 4.25149 4.2515 4.25149z" fill="#2b3b4e"/><g fill="#acb3ba"><path d="m17.0076 50.9693c.4372.3514.9447.605 1.4882.7438l-16.58204 31.4634h-1.807177z"/><path d="m22.3217 50.9693 17.0068 32.1006h-1.8064l-16.582-31.3568c.5275-.0959 1.0111-.3562 1.3816-.7438z"/><path d="m85.3623 11.3338c.4373.3514.9447.605 1.4882.7437l-16.582 31.4635h-1.8072z"/><path d="m107.683 43.541h-1.807l-16.5812-31.4635c.5435-.1387 1.051-.3923 1.4883-.7437z"/></g><path d="m0 83.1765c2.94296 8.3535 10.8077 13.9649 19.6642 14.0303 8.8566-.0654 16.7213-5.6768 19.6643-14.0303z" fill="#2b3b4e"/><path d="m19.6642 52.032c2.3481 0 4.2515-1.9035 4.2515-4.2515s-1.9034-4.2515-4.2515-4.2515c-2.348 0-4.2514 1.9035-4.2514 4.2515s1.9034 4.2515 4.2514 4.2515z" fill="#2b3b4e"/></g></svg>