<svg fill="none" height="100" viewBox="0 0 100 100" width="100" xmlns="http://www.w3.org/2000/svg" xmlns:xlink="http://www.w3.org/1999/xlink"><filter id="a" color-interpolation-filters="sRGB" filterUnits="userSpaceOnUse" height="67.3542" width="67.3542" x="16.2881" y="16.3034"><feFlood flood-opacity="0" result="BackgroundImageFix"/><feBlend in="SourceGraphic" in2="BackgroundImageFix" mode="normal" result="shape"/><feGaussianBlur result="effect1_foregroundBlur" stdDeviation="5"/></filter><linearGradient id="b" gradientUnits="userSpaceOnUse" x1="121.5" x2="-4" y1="-17.5" y2="107"><stop offset="0" stop-color="#fff"/><stop offset="1" stop-color="#737577" stop-opacity="0"/></linearGradient><linearGradient id="c" gradientUnits="userSpaceOnUse" x1="104.866" x2="-32.5" y1="-6.04837" y2="136.5"><stop offset="0" stop-color="#2b3b4e"/><stop offset="1" stop-color="#737577" stop-opacity="0"/></linearGradient><mask id="d" height="30" maskUnits="userSpaceOnUse" width="30" x="35" y="35"><path d="m64.7483 49.9949-14.5296 14.2873-14.5306-14.2873 14.5348-14.2923 9.0771 8.9347-9.0813 8.9288-3.6323-3.5712 5.4492-5.3576-1.8161-1.7864-7.2653 7.144 7.2653 7.1441 10.8966-10.7161z" fill="#fff"/></mask><mask id="e" height="54" maskUnits="userSpaceOnUse" width="54" x="35" y="35"><path d="m35.6881 88.289h52.5865v-52.5864h-52.5865z" fill="#fff"/></mask><mask id="f" height="34" maskUnits="userSpaceOnUse" width="35" x="32" y="33"><path d="m66.8848 33.0568h-33.8983v33.8983h33.8983z" fill="#fff"/></mask><mask id="g" height="34" maskUnits="userSpaceOnUse" width="34" x="33" y="33"><path d="m33.3085 66.3737h33.0508v-33.0508h-33.0508z" fill="#fff"/></mask><g fill="#f9b54c"><path d="m21.2915 0h-4.5212v11.0653h4.5212z"/><path d="m31.6424 0h-4.5212v11.0653h4.5212z"/><path d="m41.8746 0h-4.5212v11.0653h4.5212z"/><path d="m52.2263 0h-4.5212v11.0653h4.5212z"/><path d="m62.4585 0h-4.5212v11.0653h4.5212z"/><path d="m72.8093 0h-4.5212v11.0653h4.5212z"/><path d="m83.0415 0h-4.5212v11.0653h4.5212z"/><path d="m21.2915 88.8542h-4.5212v11.0653h4.5212z"/><path d="m31.6424 88.8542h-4.5212v11.0653h4.5212z"/><path d="m41.8746 88.8542h-4.5212v11.0653h4.5212z"/><path d="m52.2263 88.8542h-4.5212v11.0653h4.5212z"/><path d="m62.4585 88.8542h-4.5212v11.0653h4.5212z"/><path d="m72.8093 88.8542h-4.5212v11.0653h4.5212z"/><path d="m83.0415 88.8542h-4.5212v11.0653h4.5212z"/><path d="m99.9322 16.7847h-11.0653v4.5212h11.0653z"/><path d="m99.9322 27.1365h-11.0653v4.5211h11.0653z"/><path d="m99.9322 37.3686h-11.0653v4.5212h11.0653z"/><path d="m99.9322 47.7195h-11.0653v4.5212h11.0653z"/><path d="m99.9322 57.9517h-11.0653v4.5212h11.0653z"/><path d="m99.9322 68.3034h-11.0653v4.5212h11.0653z"/><path d="m99.9322 78.5356h-11.0653v4.5212h11.0653z"/><path d="m11.0653 16.7847h-11.0653v4.5212h11.0653z"/><path d="m11.0653 27.1365h-11.0653v4.5211h11.0653z"/><path d="m11.0653 37.3686h-11.0653v4.5212h11.0653z"/><path d="m11.0653 47.7195h-11.0653v4.5212h11.0653z"/><path d="m11.0653 57.9517h-11.0653v4.5212h11.0653z"/><path d="m11.0653 68.3034h-11.0653v4.5212h11.0653z"/><path d="m11.0653 78.5356h-11.0653v4.5212h11.0653z"/></g><path d="m84.7076 88.8865h-69.4839c-1.1066.007-2.1699-.4295-2.9524-1.212s-1.219-1.8458-1.2121-2.9525v-69.4838c-.0069-1.1067.4296-2.17 1.2121-2.9525s1.8458-1.219 2.9524-1.212h69.4839c1.1066-.007 2.17.4295 2.9525 1.212s1.219 1.8458 1.212 2.9525v69.4838c-.0275 2.2885-1.876 4.137-4.1645 4.1645z" fill="url(#b)"/><path d="m17.0076 17.0229v65.9144h65.9144v-65.9144zm63.5348 63.5347h-61.1551v-61.1551h61.1559z" fill="url(#c)"/><g filter="url(#a)"><path d="m49.9652 73.6576c13.0766 0 23.6772-10.6006 23.6772-23.6771s-10.6006-23.6771-23.6772-23.6771c-13.0765 0-23.6771 10.6006-23.6771 23.6771s10.6006 23.6771 23.6771 23.6771z" fill="#00e676"/></g><path d="m49.9652 73.6576c13.0766 0 23.6772-10.6006 23.6772-23.6771s-10.6006-23.6771-23.6772-23.6771c-13.0765 0-23.6771 10.6006-23.6771 23.6771s10.6006 23.6771 23.6771 23.6771z" fill="#00e676"/><path d="m49.9653 28.683c-8.6141 0-16.3799 5.189-19.6763 13.1473-3.2965 7.9583-1.4744 17.1188 4.6167 23.2098 6.091 6.091 15.2514 7.9131 23.2097 4.6167s13.1473-11.0623 13.1473-19.6763c.0056-5.6502-2.2364-11.0705-6.2317-15.0658-3.9952-3.9953-9.4156-6.2373-15.0657-6.2317zm0 40.2153c-10.4481 0-18.9178-8.4698-18.9178-18.9178s8.4697-18.9178 18.9178-18.9178c10.448 0 18.9178 8.4698 18.9178 18.9178.0076 5.0197-1.983 9.8359-5.5325 13.3854-3.5494 3.5494-8.3657 5.5401-13.3853 5.5324z" fill="#0bba64"/><g mask="url(#d)"><g mask="url(#e)"><g mask="url(#f)"><g mask="url(#g)"><path d="m33.7831 33.7975h32.8712v32.3906h-32.8712z" fill="#fff"/></g></g></g></g></svg>